<svg width="7" height="16" viewBox="0 0 7 16" fill="none" xmlns="http://www.w3.org/2000/svg">
<path d="M2.25 15C2.25 15.4142 2.58579 15.75 3 15.75C3.41421 15.75 3.75 15.4142 3.75 15H2.25ZM3.75 7C3.75 6.58579 3.41421 6.25 3 6.25C2.58579 6.25 2.25 6.58579 2.25 7H3.75ZM6 1.75C6.41421 1.75 6.75 1.41421 6.75 1C6.75 0.585786 6.41421 0.25 6 0.25V1.75ZM3 4H2.25H3ZM2.25 7C2.25 7.41421 2.58579 7.75 3 7.75C3.41421 7.75 3.75 7.41421 3.75 7H2.25ZM3 6.25C2.58579 6.25 2.25 6.58579 2.25 7C2.25 7.41421 2.58579 7.75 3 7.75V6.25ZM5 7.75C5.41421 7.75 5.75 7.41421 5.75 7C5.75 6.58579 5.41421 6.25 5 6.25V7.75ZM3 7.75C3.41421 7.75 3.75 7.41421 3.75 7C3.75 6.58579 3.41421 6.25 3 6.25V7.75ZM1 6.25C0.585786 6.25 0.25 6.58579 0.25 7C0.25 7.41421 0.585786 7.75 1 7.75V6.25ZM3.75 15V7H2.25V15H3.75ZM6 0.25C3.92893 0.25 2.25 1.92893 2.25 4H3.75C3.75 2.75736 4.75736 1.75 6 1.75V0.25ZM2.25 4V7H3.75V4H2.25ZM3 7.75H5V6.25H3V7.75ZM3 6.25H1V7.75H3V6.25Z" fill="white"/>
</svg>
