<svg width="17" height="16" viewBox="0 0 17 16" fill="none" xmlns="http://www.w3.org/2000/svg">
<path d="M16 1.87273C15.3471 2.33531 14.6242 2.68911 13.8591 2.9205C13.4485 2.44627 12.9027 2.11015 12.2957 1.9576C11.6887 1.80504 11.0497 1.84342 10.4651 2.06753C9.88045 2.29164 9.37848 2.69068 9.02703 3.21067C8.67558 3.73066 8.49161 4.34652 8.5 4.97495V5.65977C7.3018 5.69097 6.1145 5.42406 5.04387 4.88281C3.97323 4.34155 3.05249 3.54275 2.36364 2.55755C2.36364 2.55755 -0.363636 8.7209 5.77273 11.4602C4.36854 12.4175 2.69579 12.8976 1 12.8298C7.13636 16.2539 14.6364 12.8298 14.6364 4.95441C14.6357 4.76365 14.6175 4.57337 14.5818 4.38601C15.2777 3.69674 15.7687 2.82648 16 1.87273Z" stroke="white" stroke-width="2" stroke-linecap="round" stroke-linejoin="round"/>
</svg>
