<svg width="17" height="16" viewBox="0 0 17 16" fill="none" xmlns="http://www.w3.org/2000/svg">
<path d="M16 1.87261C15.3471 2.33519 14.6242 2.68899 13.8591 2.92038C13.4485 2.44615 12.9027 2.11003 12.2957 1.95748C11.6887 1.80492 11.0497 1.8433 10.4651 2.06741C9.88045 2.29152 9.37848 2.69056 9.02703 3.21055C8.67558 3.73054 8.49161 4.3464 8.5 4.97483V5.65965C7.3018 5.69085 6.1145 5.42394 5.04387 4.88269C3.97323 4.34143 3.05249 3.54263 2.36364 2.55743C2.36364 2.55743 -0.363636 8.72078 5.77273 11.46C4.36854 12.4174 2.69579 12.8974 1 12.8297C7.13636 16.2538 14.6364 12.8297 14.6364 4.95428C14.6357 4.76353 14.6175 4.57325 14.5818 4.38589C15.2777 3.69661 15.7687 2.82636 16 1.87261Z" stroke="white" stroke-width="2" stroke-linecap="round" stroke-linejoin="round"/>
</svg>
